<svg enable-background="new 0 0 456.793 456.793" height="456.793" viewBox="0 0 456.793 456.793" width="456.793" xmlns="http://www.w3.org/2000/svg"><path d="m448.947 218.474c-.924-1.168-23.057-28.933-61-56.81-50.707-37.253-105.879-56.944-159.551-56.944-53.673 0-108.845 19.691-159.551 56.944-37.944 27.876-60.077 55.642-61 56.81l-7.845 9.922 7.845 9.923c.923 1.168 23.056 28.934 61 56.811 50.707 37.252 105.878 56.943 159.551 56.943 53.672 0 108.844-19.691 159.551-56.943 37.943-27.877 60.076-55.643 61-56.811l7.846-9.923zm-80.674 51.4c-31.354 22.9-81.072 50.199-139.877 50.199s-108.524-27.299-139.877-50.199c-21.516-15.715-37.641-31.609-46.834-41.478 9.197-9.872 25.32-25.764 46.833-41.478 31.354-22.901 81.072-50.2 139.877-50.2 58.804 0 108.525 27.299 139.876 50.2 21.516 15.715 37.641 31.609 46.834 41.477-9.195 9.873-25.32 25.766-46.832 41.479z"/><path d="m228.396 160.728c-16.416 0-31.465 5.849-43.183 15.572 9.273 2.715 16.049 11.279 16.049 21.431 0 12.334-9.999 22.333-22.333 22.333-6.482 0-12.316-2.764-16.396-7.174-1.168 4.982-1.807 10.169-1.807 15.507 0 37.373 30.297 67.669 67.67 67.669 37.372 0 67.668-30.296 67.668-67.669s-30.294-67.669-67.668-67.669z"/></svg>